<svg width="1168" height="540" viewBox="0 0 1168 540" fill="none" xmlns="http://www.w3.org/2000/svg">
<path d="M538.05 0L538.07 539.13C537.877 539.323 537.693 539.613 537.52 540H524.1H507.55H502.88C502.407 539.82 501.943 539.82 501.49 540H500.85H41.03H0V0H538.05ZM30.28 533.34L37.98 533.32H531.16C531.197 533.32 531.233 533.313 531.267 533.299C531.301 533.285 531.332 533.264 531.358 533.238C531.384 533.212 531.405 533.181 531.419 533.147C531.433 533.113 531.44 533.077 531.44 533.04V7.41C531.44 7.37192 531.433 7.33421 531.419 7.29902C531.405 7.26384 531.384 7.23187 531.358 7.20494C531.332 7.17801 531.301 7.15665 531.267 7.14208C531.233 7.1275 531.197 7.12 531.16 7.12H7.4C7.32044 7.12 7.24413 7.15161 7.18787 7.20787C7.13161 7.26413 7.1 7.34044 7.1 7.42V532.98C7.1 533.078 7.13898 533.172 7.20837 533.242C7.27776 533.311 7.37187 533.35 7.47 533.35L30.28 533.34Z" fill="#D8B338"/>
<path d="M339.03 317.48C339.078 317.277 339.168 317.085 339.293 316.919C339.419 316.752 339.577 316.613 339.759 316.512C339.941 316.41 340.141 316.348 340.348 316.328C340.555 316.309 340.763 316.333 340.96 316.4L341.03 316.42C341.457 316.56 341.823 316.845 342.064 317.226C342.304 317.608 342.406 318.061 342.35 318.51C340.723 331.643 339.853 344.777 339.74 357.91C339.734 358.607 339.506 359.284 339.091 359.843C338.676 360.402 338.094 360.814 337.43 361.02C336.69 361.253 335.547 361.37 334 361.37C296.54 361.43 253.177 361.443 203.91 361.41C203.442 361.41 202.992 361.229 202.654 360.905C202.317 360.58 202.118 360.138 202.1 359.67V359.52C202.09 359.296 202.127 359.073 202.207 358.864C202.288 358.655 202.411 358.464 202.568 358.304C202.725 358.144 202.914 358.017 203.123 357.932C203.331 357.847 203.555 357.806 203.78 357.81C210.08 357.93 215.287 357.393 219.4 356.2C225.11 354.53 226.3 349.68 226.79 343.97C227.023 341.297 227.137 339.153 227.13 337.54C227.11 265.42 227.11 221.823 227.13 206.75C227.14 203.05 226.92 199.44 226.6 196.55C225.26 184.35 213.21 185.32 203.9 184.99C203.414 184.972 202.954 184.763 202.619 184.407C202.285 184.052 202.102 183.579 202.11 183.09V183.01C202.115 182.775 202.167 182.544 202.262 182.329C202.357 182.115 202.493 181.921 202.663 181.759C202.833 181.598 203.034 181.471 203.253 181.387C203.472 181.303 203.705 181.263 203.94 181.27C215.933 181.597 224.133 181.863 228.54 182.07C241.77 182.69 255.95 181.62 269.36 181.25C269.603 181.243 269.845 181.286 270.071 181.375C270.297 181.464 270.503 181.599 270.676 181.77C270.849 181.941 270.985 182.145 271.077 182.37C271.169 182.595 271.214 182.837 271.21 183.08V183.22C271.199 183.726 270.99 184.207 270.627 184.559C270.263 184.911 269.776 185.105 269.27 185.1C255.84 184.98 246.16 185.54 246.02 201.51C245.98 205.857 245.96 250.857 245.96 336.51C245.967 341.31 246.383 345.09 247.21 347.85C249.42 355.25 258.63 354.92 266.5 355.23C268.653 355.317 279.32 355.36 298.5 355.36C307.72 355.36 315.35 353.65 323.03 347.88C330.3 342.42 335.36 332.64 337.53 323.77C337.617 323.43 338.117 321.333 339.03 317.48Z" fill="#D8B338"/>
<path d="M601.26 405.13C601.254 405.185 601.231 405.238 601.192 405.279C601.154 405.321 601.104 405.348 601.049 405.357C600.995 405.367 600.94 405.357 600.892 405.33C600.845 405.304 600.809 405.261 600.79 405.21C598.85 400.63 596.84 397.02 591.48 396.59C583.967 395.983 578.657 398.837 575.55 405.15C573.1 410.12 573.55 418 576.68 422.64C579.64 427.03 584.67 430.37 590.21 430.14C595.73 429.907 599.27 427.153 600.83 421.88C600.859 421.793 600.919 421.719 600.998 421.672C601.077 421.626 601.171 421.61 601.261 421.627C601.352 421.644 601.433 421.693 601.489 421.765C601.546 421.838 601.575 421.928 601.57 422.02L601.21 427.06C601.201 427.196 601.165 427.328 601.105 427.448C601.045 427.569 600.961 427.675 600.86 427.76C599.16 429.207 596.773 430.173 593.7 430.66C580.96 432.68 569.79 425.04 570.51 411.45C570.79 406.36 573.63 401.68 577.96 399C584.127 395.18 590.62 394.487 597.44 396.92C599.93 397.81 600.6 398.92 601.05 401.48C601.29 402.847 601.36 404.063 601.26 405.13Z" fill="#D8B338"/>
<path d="M695.712 405.543C697.7 409.749 697.892 414.593 696.244 419.011C694.596 423.428 691.244 427.056 686.926 429.098C684.788 430.108 682.476 430.699 680.124 430.836C677.772 430.973 675.425 430.653 673.217 429.895C671.009 429.138 668.983 427.956 667.255 426.419C665.528 424.882 664.132 423.019 663.147 420.937C661.159 416.731 660.968 411.887 662.616 407.469C664.264 403.052 667.616 399.424 671.934 397.382C674.072 396.372 676.383 395.781 678.736 395.644C681.088 395.507 683.435 395.827 685.643 396.585C687.851 397.342 689.877 398.524 691.604 400.061C693.332 401.598 694.728 403.461 695.712 405.543ZM675.85 396.935C674.028 397.339 672.317 398.16 670.815 399.352C669.314 400.543 668.05 402.082 667.097 403.88C666.144 405.678 665.52 407.699 665.261 409.83C665.002 411.96 665.113 414.157 665.587 416.296C666.061 418.434 666.889 420.472 668.024 422.293C669.16 424.115 670.579 425.683 672.203 426.91C673.826 428.136 675.622 428.997 677.486 429.442C679.351 429.887 681.248 429.909 683.07 429.505C684.892 429.101 686.603 428.28 688.104 427.088C689.606 425.897 690.87 424.358 691.823 422.56C692.776 420.762 693.4 418.741 693.659 416.61C693.918 414.48 693.807 412.283 693.333 410.144C692.859 408.006 692.031 405.968 690.896 404.147C689.76 402.325 688.34 400.757 686.717 399.53C685.093 398.304 683.298 397.443 681.434 396.998C679.569 396.553 677.672 396.531 675.85 396.935Z" fill="#D8B338"/>
<path d="M714.93 404.3L715.72 395.6C715.72 395.581 715.725 395.563 715.735 395.547C715.745 395.532 715.759 395.519 715.775 395.511C715.792 395.502 715.811 395.499 715.829 395.5C715.848 395.502 715.865 395.509 715.88 395.52C715.933 395.553 716.377 395.737 717.21 396.07C717.697 396.263 718.097 396.357 718.41 396.35C723.47 396.25 726.95 396.373 728.85 396.72C729.73 396.872 730.627 396.872 731.5 396.72C734.173 396.247 737.35 396.17 741.03 396.49C742.63 396.63 743.29 396.19 744.7 395.43C744.771 395.391 744.852 395.374 744.933 395.383C745.013 395.392 745.089 395.426 745.149 395.48C745.21 395.533 745.252 395.605 745.27 395.684C745.288 395.763 745.281 395.845 745.25 395.92L744.69 397.34C744.624 397.512 744.59 397.695 744.59 397.88L744.69 404.1C744.693 404.163 744.673 404.225 744.632 404.274C744.592 404.324 744.534 404.358 744.47 404.37L744.18 404.41C744.134 404.417 744.088 404.414 744.043 404.402C743.998 404.39 743.957 404.369 743.921 404.34C743.885 404.31 743.856 404.274 743.835 404.233C743.814 404.191 743.802 404.146 743.8 404.1C743.61 400.97 743.37 397.9 739.41 397.4C737.17 397.113 735.157 397.123 733.37 397.43C732.811 397.527 732.305 397.82 731.943 398.256C731.58 398.692 731.384 399.243 731.39 399.81C731.483 410.823 731.48 419.407 731.38 425.56C731.333 428.187 732.65 429.5 735.33 429.5C735.997 429.5 736.343 429.507 736.37 429.52C736.457 429.559 736.527 429.626 736.568 429.71C736.61 429.795 736.621 429.892 736.598 429.985C736.576 430.077 736.522 430.16 736.446 430.22C736.37 430.279 736.276 430.311 736.18 430.31L723.46 429.94C723.448 429.94 723.437 429.936 723.428 429.929C723.419 429.922 723.412 429.911 723.41 429.9L723.4 429.85C723.394 429.801 723.406 429.751 723.434 429.712C723.462 429.673 723.504 429.647 723.55 429.64L727.08 428.98C727.56 428.889 727.994 428.634 728.306 428.258C728.618 427.882 728.789 427.409 728.79 426.92V400.04C728.79 399.439 728.577 398.857 728.189 398.397C727.802 397.936 727.264 397.626 726.67 397.52C724.33 397.107 722.007 397.137 719.7 397.61C719.366 397.682 719.058 397.844 718.81 398.08C717.263 399.54 716.393 400.68 716.2 401.5C715.8 403.173 715.51 404.153 715.33 404.44C715.303 404.479 715.263 404.509 715.217 404.524C715.172 404.538 715.122 404.538 715.077 404.522C715.032 404.506 714.993 404.476 714.966 404.436C714.94 404.396 714.927 404.348 714.93 404.3Z" fill="#D8B338"/>
<path d="M858.55 421.08C858.54 421.013 858.553 420.945 858.588 420.888C858.624 420.831 858.678 420.788 858.743 420.766C858.808 420.745 858.879 420.747 858.944 420.771C859.009 420.796 859.064 420.841 859.1 420.9C859.213 421.107 859.997 422.727 861.45 425.76C863.89 430.88 873.18 432.12 875.1 425.48C877.24 418.04 868.22 414.32 864.13 411.43C859.12 407.88 857.99 401.61 863.33 397.61C866.743 395.043 870.757 394.803 875.37 396.89C875.829 397.1 876.225 397.426 876.516 397.837C876.808 398.248 876.985 398.729 877.03 399.23L877.44 403.71C877.444 403.79 877.421 403.869 877.374 403.934C877.327 403.998 877.26 404.045 877.183 404.066C877.105 404.087 877.023 404.081 876.95 404.049C876.877 404.017 876.817 403.961 876.78 403.89C876.773 403.883 876.47 403.03 875.87 401.33C874.51 397.51 869.07 394.67 865.52 397.38C861.63 400.35 861.82 405.67 865.64 408.57C866.667 409.357 869.523 411.26 874.21 414.28C880.87 418.58 879.64 427.38 872.18 430.2C868.82 431.48 865.197 431.257 861.31 429.53C860.82 429.313 860.392 428.974 860.067 428.546C859.742 428.118 859.529 427.613 859.45 427.08L858.55 421.08Z" fill="#D8B338"/>
<path d="M645.14 422.52C645.44 424.453 645.293 426.773 644.7 429.48C644.663 429.65 644.569 429.802 644.433 429.911C644.296 430.02 644.126 430.08 643.95 430.08L619.98 430.1C619.918 430.1 619.858 430.076 619.814 430.033C619.769 429.99 619.743 429.932 619.74 429.87V429.86C619.74 429.76 619.778 429.664 619.847 429.591C619.916 429.518 620.01 429.475 620.11 429.47C621.517 429.423 622.647 429.023 623.5 428.27C623.676 428.116 623.817 427.925 623.914 427.711C624.01 427.498 624.06 427.265 624.06 427.03V399.37C624.06 399.201 624.023 399.033 623.953 398.877C623.882 398.722 623.779 398.583 623.65 398.47C622.697 397.617 621.553 397.11 620.22 396.95C620.148 396.943 620.082 396.908 620.034 396.852C619.986 396.797 619.959 396.725 619.96 396.65V396.27C619.96 396.255 619.963 396.24 619.969 396.226C619.975 396.213 619.983 396.201 619.994 396.191C620.004 396.181 620.017 396.174 620.03 396.171C620.043 396.167 620.057 396.167 620.07 396.17C623.697 396.81 627.28 396.85 630.82 396.29C630.859 396.283 630.9 396.284 630.939 396.294C630.977 396.304 631.013 396.323 631.044 396.349C631.075 396.375 631.099 396.407 631.116 396.444C631.132 396.48 631.141 396.52 631.14 396.56V396.88C631.14 396.911 631.134 396.942 631.122 396.97C631.109 396.999 631.092 397.025 631.069 397.046C631.047 397.068 631.02 397.085 630.991 397.095C630.962 397.106 630.931 397.111 630.9 397.11C628.38 397.05 627.03 398.06 627.06 400.81C627.147 408.15 627.143 416.793 627.05 426.74C627.045 427.295 627.257 427.831 627.643 428.231C628.028 428.631 628.555 428.864 629.11 428.88C631.937 428.96 634.583 429.017 637.05 429.05C641.9 429.12 643.87 426.99 644.79 422.51C644.801 422.471 644.824 422.437 644.856 422.412C644.889 422.388 644.928 422.376 644.969 422.377C645.009 422.378 645.048 422.393 645.079 422.419C645.11 422.445 645.132 422.48 645.14 422.52Z" fill="#D8B338"/>
<path d="M766.78 413.29C766.78 404.337 766.777 399.757 766.77 399.55C766.764 399.18 766.634 398.821 766.4 398.53C765.6 397.557 764.3 397.037 762.5 396.97C762.47 396.967 762.442 396.955 762.422 396.934C762.402 396.914 762.39 396.888 762.39 396.86V396.59C762.39 396.558 762.396 396.527 762.409 396.498C762.421 396.469 762.44 396.442 762.463 396.42C762.486 396.398 762.514 396.38 762.544 396.368C762.575 396.356 762.607 396.35 762.64 396.35C764.48 396.43 766.33 396.79 768.14 396.79C769.94 396.78 771.79 396.43 773.63 396.35C773.663 396.35 773.695 396.356 773.726 396.368C773.756 396.38 773.784 396.398 773.807 396.42C773.83 396.442 773.848 396.469 773.861 396.498C773.874 396.527 773.88 396.558 773.88 396.59V396.86C773.88 396.887 773.869 396.914 773.848 396.934C773.828 396.955 773.8 396.967 773.77 396.97C771.97 397.037 770.67 397.557 769.87 398.53C769.636 398.821 769.506 399.18 769.5 399.55C769.5 399.757 769.5 404.337 769.5 413.29C769.5 422.243 769.503 426.823 769.51 427.03C769.516 427.4 769.646 427.759 769.88 428.05C770.68 429.023 771.98 429.543 773.78 429.61C773.81 429.612 773.838 429.625 773.858 429.646C773.879 429.666 773.89 429.692 773.89 429.72V429.99C773.89 430.022 773.884 430.053 773.871 430.082C773.858 430.111 773.84 430.138 773.817 430.16C773.794 430.182 773.766 430.2 773.736 430.212C773.705 430.224 773.673 430.23 773.64 430.23C771.8 430.15 769.95 429.79 768.14 429.79C766.34 429.79 764.49 430.15 762.65 430.23C762.617 430.23 762.585 430.224 762.554 430.212C762.524 430.2 762.496 430.182 762.473 430.16C762.45 430.138 762.431 430.111 762.419 430.082C762.406 430.053 762.4 430.022 762.4 429.99V429.72C762.4 429.692 762.412 429.666 762.432 429.646C762.452 429.625 762.48 429.613 762.51 429.61C764.31 429.543 765.61 429.023 766.41 428.05C766.644 427.759 766.774 427.4 766.78 427.03C766.78 426.823 766.78 422.243 766.78 413.29Z" fill="#D8B338"/>
<path d="M792.35 396.78C794.16 396.78 796.01 396.42 797.85 396.33C797.884 396.33 797.917 396.336 797.948 396.349C797.979 396.362 798.007 396.38 798.031 396.404C798.054 396.427 798.072 396.455 798.084 396.485C798.096 396.515 798.101 396.548 798.1 396.58V396.85C798.1 396.878 798.088 396.904 798.068 396.924C798.048 396.945 798.02 396.957 797.99 396.96C796.19 397.027 794.89 397.55 794.09 398.53C793.856 398.821 793.726 399.18 793.72 399.55C793.72 399.757 793.727 404.337 793.74 413.29C793.76 422.25 793.77 426.83 793.77 427.03C793.776 427.4 793.906 427.759 794.14 428.05C794.947 429.03 796.25 429.55 798.05 429.61C798.08 429.612 798.108 429.625 798.128 429.646C798.149 429.666 798.16 429.692 798.16 429.72V429.99C798.16 430.022 798.154 430.053 798.141 430.082C798.128 430.111 798.11 430.138 798.087 430.16C798.064 430.182 798.036 430.2 798.006 430.212C797.975 430.224 797.943 430.23 797.91 430.23C796.07 430.16 794.22 429.8 792.41 429.81C790.6 429.81 788.75 430.17 786.92 430.25C786.886 430.251 786.853 430.246 786.821 430.235C786.79 430.223 786.761 430.206 786.737 430.183C786.712 430.161 786.693 430.134 786.68 430.104C786.667 430.074 786.66 430.042 786.66 430.01V429.74C786.66 429.712 786.672 429.686 786.692 429.666C786.712 429.645 786.74 429.633 786.77 429.63C788.57 429.563 789.87 429.04 790.67 428.06C790.904 427.769 791.034 427.41 791.04 427.04C791.04 426.833 791.033 422.253 791.02 413.3C791.007 404.34 790.997 399.757 790.99 399.55C790.984 399.18 790.854 398.821 790.62 398.53C789.813 397.557 788.51 397.04 786.71 396.98C786.68 396.977 786.652 396.965 786.632 396.944C786.611 396.924 786.6 396.898 786.6 396.87V396.6C786.598 396.567 786.604 396.534 786.617 396.503C786.629 396.472 786.648 396.444 786.673 396.42C786.697 396.397 786.726 396.378 786.759 396.366C786.791 396.354 786.825 396.349 786.86 396.35C788.7 396.43 790.55 396.78 792.35 396.78Z" fill="#D8B338"/>
<path d="M816.65 396.76C816.606 396.742 816.569 396.709 816.545 396.668C816.521 396.627 816.511 396.579 816.517 396.531C816.522 396.484 816.543 396.439 816.576 396.405C816.609 396.37 816.653 396.348 816.7 396.34C817.62 396.247 819.053 396.35 821 396.65C821.63 396.75 822.273 396.76 822.91 396.68C827.563 396.107 832.277 396.107 837.05 396.68C837.202 396.698 837.344 396.765 837.455 396.872C837.565 396.979 837.637 397.118 837.66 397.27C838.053 400.003 838.107 401.843 837.82 402.79C837.805 402.835 837.775 402.874 837.734 402.901C837.694 402.928 837.647 402.941 837.6 402.937C837.553 402.934 837.509 402.914 837.477 402.882C837.444 402.85 837.424 402.807 837.42 402.76C837 399.66 835.63 397.917 833.31 397.53C830.99 397.143 828.323 397.167 825.31 397.6C824.759 397.678 824.255 397.955 823.894 398.379C823.533 398.802 823.34 399.343 823.35 399.9C823.47 406.36 823.473 415.003 823.36 425.83C823.34 427.763 824.08 428.787 825.58 428.9C831.27 429.32 838.09 430.34 838.89 422.89C838.899 422.828 838.93 422.771 838.977 422.729C839.024 422.687 839.084 422.663 839.147 422.661C839.209 422.659 839.271 422.678 839.321 422.716C839.371 422.754 839.406 422.809 839.42 422.87C839.5 423.29 839.383 425.44 839.07 429.32C839.057 429.518 838.968 429.704 838.822 429.84C838.675 429.975 838.481 430.051 838.28 430.05H816.37C816.343 430.05 816.318 430.039 816.299 430.021C816.281 430.002 816.27 429.977 816.27 429.95V429.69C816.27 429.682 816.273 429.674 816.279 429.669C816.284 429.663 816.292 429.66 816.3 429.66C818.373 429.547 819.793 428.96 820.56 427.9C820.768 427.607 820.88 427.258 820.88 426.9V399.7C820.881 399.247 820.737 398.805 820.469 398.437C820.202 398.068 819.824 397.793 819.39 397.65L816.65 396.76Z" fill="#D8B338"/>
<path d="M835.42 409.39C835.447 409.34 835.49 409.301 835.542 409.278C835.594 409.256 835.652 409.252 835.707 409.267C835.762 409.282 835.809 409.316 835.843 409.362C835.876 409.408 835.893 409.463 835.89 409.52C835.557 411.787 835.657 414.113 836.19 416.5C836.199 416.541 836.199 416.583 836.189 416.623C836.18 416.664 836.162 416.702 836.136 416.734C836.11 416.767 836.077 416.793 836.04 416.811C836.002 416.83 835.962 416.839 835.92 416.84H835.65C835.623 416.84 835.596 416.83 835.576 416.811C835.555 416.793 835.542 416.767 835.54 416.74C835.113 414.18 833.69 412.93 831.27 412.99C828.35 413.063 826.447 413.04 825.56 412.92C825.476 412.908 825.4 412.867 825.345 412.804C825.29 412.742 825.259 412.662 825.26 412.58V412.24C825.26 412.231 825.263 412.222 825.268 412.215C825.273 412.207 825.281 412.202 825.29 412.2C826.51 412.073 828.297 412.053 830.65 412.14C833.34 412.24 834.42 411.71 835.42 409.39Z" fill="#D8B338"/>
<path d="M788.798 411.96L771.498 412.02C771.233 412.021 771.019 412.237 771.02 412.502L771.02 412.542C771.021 412.807 771.237 413.021 771.502 413.02L788.802 412.96C789.067 412.959 789.281 412.743 789.28 412.478L789.28 412.438C789.279 412.173 789.063 411.959 788.798 411.96Z" fill="#D8B338"/>
<path d="M904.4 353.79C905.02 353.863 905.96 353.757 907.22 353.47C909.5 352.95 910.64 351.38 910.64 348.76C910.66 323.073 910.65 307.407 910.61 301.76C910.597 299.833 909.747 298.41 908.06 297.49C907.888 297.398 907.698 297.34 907.5 297.32L904.19 296.99C904.081 296.985 903.977 296.94 903.898 296.863C903.82 296.787 903.772 296.685 903.763 296.576C903.755 296.467 903.786 296.358 903.852 296.271C903.917 296.183 904.013 296.122 904.12 296.1C904.96 295.873 905.923 295.8 907.01 295.88C913.13 296.34 920.123 296.253 927.99 295.62C939.28 294.71 952.35 300.45 946.1 314.63C944.507 318.237 941.813 321.133 938.02 323.32C937.927 323.374 937.846 323.447 937.782 323.533C937.718 323.62 937.672 323.718 937.647 323.823C937.622 323.927 937.618 324.036 937.636 324.142C937.653 324.248 937.692 324.349 937.75 324.44C943.35 333.247 949.12 340.943 955.06 347.53C957.953 350.737 961.577 352.82 965.93 353.78C966.116 353.819 966.283 353.921 966.403 354.068C966.524 354.216 966.589 354.4 966.59 354.59V354.99C966.59 355.04 966.58 355.089 966.559 355.135C966.539 355.181 966.509 355.222 966.472 355.256C966.434 355.29 966.389 355.315 966.341 355.332C966.293 355.348 966.241 355.354 966.19 355.35C961.317 355.01 956.07 354.92 950.45 355.08C945.46 355.22 931.84 332.06 929.2 327.52C929.045 327.25 928.821 327.025 928.551 326.869C928.28 326.713 927.973 326.63 927.66 326.63H921.66C921.522 326.63 921.39 326.686 921.292 326.785C921.195 326.885 921.14 327.019 921.14 327.16C921.18 338.08 921.177 345.22 921.13 348.58C921.08 352.43 923.37 353.84 926.83 353.63C926.942 353.623 927.054 353.639 927.159 353.677C927.264 353.716 927.361 353.775 927.442 353.852C927.524 353.929 927.589 354.021 927.633 354.124C927.677 354.227 927.7 354.338 927.7 354.45V354.74C927.7 354.821 927.684 354.902 927.651 354.977C927.618 355.051 927.57 355.118 927.509 355.173C927.449 355.228 927.378 355.269 927.3 355.294C927.223 355.32 927.141 355.328 927.06 355.32C920.307 354.667 913.203 354.643 905.75 355.25C905.69 355.25 905.227 355.22 904.36 355.16C904.286 355.155 904.215 355.135 904.148 355.102C904.082 355.069 904.024 355.024 903.975 354.968C903.927 354.912 903.89 354.848 903.867 354.778C903.844 354.708 903.835 354.634 903.84 354.56L903.86 354.24C903.865 354.174 903.883 354.109 903.913 354.05C903.944 353.991 903.985 353.939 904.036 353.897C904.086 353.855 904.145 353.824 904.207 353.805C904.27 353.787 904.335 353.782 904.4 353.79ZM921.64 323.69C923.61 324.13 925.97 323.99 928.61 323.98C938.16 323.97 937.54 310.06 936.26 304.27C935.573 301.177 933.84 299.17 931.06 298.25C927.5 297.07 921.82 297.69 921.24 302.28C921.193 302.647 921.15 309.563 921.11 323.03C921.111 323.184 921.163 323.333 921.26 323.453C921.356 323.572 921.49 323.656 921.64 323.69Z" fill="white"/>
<path d="M616.44 337.99C616.492 337.944 616.557 337.914 616.625 337.903C616.694 337.893 616.764 337.903 616.827 337.932C616.889 337.961 616.941 338.008 616.975 338.066C617.01 338.125 617.025 338.192 617.02 338.26L615.89 354.06C615.87 354.324 615.751 354.571 615.559 354.751C615.366 354.931 615.112 355.031 614.85 355.03L570.92 355.13C570.83 355.131 570.741 355.111 570.659 355.072C570.578 355.034 570.506 354.977 570.449 354.907C570.392 354.837 570.352 354.755 570.332 354.667C570.311 354.579 570.31 354.488 570.33 354.4L570.34 354.36C570.391 354.147 570.515 353.958 570.69 353.827C570.865 353.695 571.081 353.629 571.3 353.64C575.153 353.847 577.077 352.143 577.07 348.53C577.037 329.65 577.033 315.057 577.06 304.75C577.07 301.66 577.26 299.05 574.05 297.42C573.878 297.334 573.691 297.283 573.5 297.27L570.74 297.07C570.61 297.065 570.486 297.012 570.393 296.922C570.299 296.832 570.242 296.71 570.232 296.581C570.222 296.451 570.26 296.322 570.339 296.219C570.418 296.115 570.532 296.045 570.66 296.02C571.473 295.84 572.58 295.797 573.98 295.89C580.087 296.277 584.417 296.35 586.97 296.11C589.917 295.83 592.23 295.773 593.91 295.94C594.048 295.955 594.175 296.023 594.264 296.129C594.353 296.235 594.399 296.371 594.39 296.51L594.36 296.84C594.357 296.886 594.346 296.93 594.326 296.971C594.306 297.012 594.277 297.049 594.243 297.078C594.208 297.108 594.168 297.131 594.125 297.145C594.081 297.159 594.035 297.164 593.99 297.16C588.91 296.78 587.52 298.72 587.52 303.78C587.493 330.207 587.493 345.113 587.52 348.5C587.56 352.57 590.49 352.3 593.93 352.33C601.47 352.41 610.34 350.26 613.81 342.55C614.29 341.47 615.12 339.26 616.44 337.99Z" fill="white"/>
<path d="M685.51 296.65C685.441 296.616 685.384 296.561 685.349 296.492C685.313 296.424 685.301 296.345 685.313 296.269C685.325 296.193 685.362 296.123 685.417 296.069C685.472 296.015 685.543 295.98 685.62 295.97C687.087 295.797 689.063 295.82 691.55 296.04C696.25 296.46 701.25 295.9 704.79 295.76C704.936 295.756 705.079 295.804 705.192 295.896C705.304 295.988 705.378 296.118 705.4 296.26L705.44 296.55C705.447 296.605 705.435 296.661 705.406 296.707C705.376 296.753 705.332 296.786 705.28 296.8C700.407 298.193 697.9 301.273 697.76 306.04C697.62 310.733 697.603 317.893 697.71 327.52C697.803 335.22 697.24 340.497 696.02 343.35C691.76 353.3 681.93 357.07 671.35 356.16C658.68 355.06 650.37 346.85 650.38 333.48C650.393 318.5 650.38 307.847 650.34 301.52C650.333 300.213 649.5 298.897 647.84 297.57C647.585 297.374 647.279 297.256 646.96 297.23L644.2 297.06C644.008 297.047 643.829 296.96 643.702 296.818C643.575 296.675 643.509 296.489 643.52 296.3V296.27C643.526 296.19 643.548 296.112 643.585 296.041C643.622 295.97 643.672 295.907 643.734 295.856C643.796 295.805 643.867 295.766 643.943 295.743C644.02 295.72 644.1 295.712 644.18 295.72C649.88 296.273 656.903 296.317 665.25 295.85C665.963 295.81 666.657 295.883 667.33 296.07C667.442 296.104 667.539 296.176 667.604 296.274C667.669 296.372 667.699 296.489 667.687 296.605C667.675 296.721 667.622 296.828 667.539 296.908C667.455 296.987 667.346 297.034 667.23 297.04C663.55 297.25 660.87 298.01 660.84 302.26C660.787 310.753 660.783 320.667 660.83 332C660.89 344.04 666.1 353.93 679.97 352.64C689.01 351.81 694.09 344.81 694.26 335.99C694.373 329.963 694.393 320.303 694.32 307.01C694.29 302.34 691.94 298.48 687.5 297.22C686.213 296.86 685.55 296.67 685.51 296.65Z" fill="white"/>
<path d="M730.12 296.72C729.978 296.682 729.856 296.592 729.778 296.468C729.7 296.343 729.672 296.194 729.7 296.05L729.71 296.02C729.729 295.92 729.785 295.831 729.866 295.77C729.948 295.709 730.049 295.681 730.15 295.69C736.843 296.343 743.78 296.35 750.96 295.71C751.089 295.699 751.218 295.738 751.32 295.82C751.422 295.901 751.49 296.019 751.51 296.15L751.57 296.52C751.581 296.594 751.578 296.67 751.56 296.743C751.542 296.816 751.51 296.884 751.465 296.945C751.42 297.005 751.364 297.056 751.3 297.095C751.236 297.133 751.164 297.159 751.09 297.17L749.52 297.41C749.273 297.447 749.039 297.546 748.84 297.697C748.641 297.847 748.482 298.045 748.379 298.273C748.275 298.5 748.231 298.75 748.248 298.999C748.266 299.249 748.346 299.489 748.48 299.7L761.17 319.4C761.211 319.465 761.268 319.519 761.334 319.557C761.401 319.595 761.475 319.617 761.551 319.62C761.627 319.623 761.703 319.607 761.77 319.574C761.838 319.541 761.896 319.491 761.94 319.43C765.247 314.91 768.18 310.68 770.74 306.74C773.36 302.7 774.59 297.69 767.91 296.82C767.842 296.81 767.778 296.78 767.727 296.733C767.677 296.687 767.641 296.626 767.626 296.558C767.611 296.491 767.617 296.421 767.642 296.357C767.668 296.293 767.713 296.238 767.77 296.2L768.31 295.86C768.478 295.75 768.676 295.701 768.87 295.72C774.19 296.307 779.98 296.333 786.24 295.8C786.92 295.74 787.573 295.827 788.2 296.06C788.261 296.084 788.313 296.126 788.349 296.18C788.386 296.234 788.405 296.298 788.404 296.363C788.403 296.429 788.382 296.492 788.343 296.545C788.305 296.598 788.252 296.638 788.19 296.66C783.177 298.213 778.89 301.19 775.33 305.59C772.857 308.643 768.87 313.987 763.37 321.62C763.238 321.806 763.165 322.027 763.161 322.254C763.158 322.481 763.224 322.703 763.35 322.89C765.91 326.677 771.127 334.753 779 347.12C781.413 350.913 784.633 353.127 788.66 353.76C788.885 353.798 789.093 353.904 789.256 354.065C789.419 354.226 789.528 354.434 789.57 354.66L789.58 354.71C789.595 354.797 789.589 354.887 789.563 354.972C789.537 355.056 789.491 355.134 789.43 355.198C789.369 355.262 789.294 355.311 789.21 355.341C789.127 355.37 789.038 355.381 788.95 355.37C781.703 354.597 774.64 354.597 767.76 355.37C767.542 355.396 767.321 355.376 767.11 355.31L766.78 355.21C766.72 355.193 766.667 355.159 766.626 355.112C766.586 355.065 766.559 355.008 766.551 354.946C766.543 354.885 766.552 354.822 766.579 354.766C766.605 354.71 766.647 354.663 766.7 354.63L769.36 352.91C769.506 352.816 769.632 352.694 769.731 352.55C769.83 352.407 769.899 352.246 769.935 352.076C769.971 351.906 769.974 351.73 769.942 351.56C769.91 351.389 769.845 351.226 769.75 351.08L756.87 331.07C756.808 330.974 756.722 330.895 756.622 330.839C756.522 330.784 756.41 330.754 756.295 330.752C756.181 330.75 756.068 330.776 755.965 330.828C755.863 330.88 755.776 330.956 755.71 331.05C751.69 336.73 748.617 341.207 746.49 344.48C745.23 346.413 744.553 348.26 744.46 350.02C744.31 352.64 747.24 353.35 749.08 354.13C749.214 354.192 749.322 354.299 749.385 354.432C749.448 354.565 749.462 354.716 749.425 354.859C749.388 355.002 749.302 355.127 749.183 355.213C749.063 355.299 748.917 355.341 748.77 355.33C742.43 354.65 736.15 354.667 729.93 355.38C729.755 355.401 729.578 355.355 729.434 355.252C729.29 355.148 729.189 354.994 729.15 354.82L729.14 354.8C729.102 354.628 729.131 354.448 729.22 354.296C729.308 354.144 729.451 354.031 729.62 353.98C734.46 352.52 738.43 349.863 741.53 346.01C744.35 342.503 748.723 336.657 754.65 328.47C754.736 328.352 754.783 328.211 754.787 328.065C754.791 327.918 754.75 327.774 754.67 327.65C748.783 318.517 743.523 310.347 738.89 303.14C736.803 299.907 733.88 297.767 730.12 296.72Z" fill="white"/>
<path d="M856.65 296.66C856.581 296.626 856.524 296.571 856.489 296.502C856.453 296.434 856.441 296.355 856.453 296.279C856.465 296.203 856.502 296.133 856.557 296.079C856.612 296.025 856.684 295.99 856.76 295.98C858.227 295.807 860.203 295.83 862.69 296.05C867.39 296.47 872.39 295.91 875.93 295.77C876.076 295.765 876.219 295.814 876.332 295.906C876.444 295.998 876.518 296.128 876.54 296.27L876.58 296.56C876.587 296.615 876.575 296.671 876.546 296.717C876.516 296.763 876.472 296.796 876.42 296.81C871.547 298.203 869.04 301.283 868.9 306.05C868.76 310.743 868.743 317.9 868.85 327.52C868.937 335.22 868.37 340.497 867.15 343.35C862.89 353.3 853.06 357.06 842.49 356.15C829.82 355.05 821.51 346.84 821.52 333.48C821.54 318.5 821.53 307.847 821.49 301.52C821.483 300.213 820.65 298.897 818.99 297.57C818.735 297.374 818.429 297.256 818.11 297.23L815.35 297.06C815.158 297.047 814.979 296.96 814.852 296.818C814.725 296.675 814.659 296.489 814.67 296.3V296.27C814.676 296.19 814.698 296.112 814.735 296.041C814.772 295.97 814.823 295.907 814.884 295.856C814.946 295.805 815.017 295.766 815.093 295.743C815.17 295.72 815.25 295.712 815.33 295.72C821.03 296.273 828.053 296.32 836.4 295.86C837.113 295.82 837.807 295.893 838.48 296.08C838.592 296.114 838.689 296.186 838.754 296.284C838.819 296.382 838.849 296.499 838.837 296.615C838.825 296.731 838.772 296.838 838.689 296.918C838.605 296.997 838.496 297.044 838.38 297.05C834.7 297.25 832.02 298.01 831.99 302.26C831.93 310.753 831.923 320.667 831.97 332C832.03 344.03 837.24 353.92 851.11 352.64C860.14 351.81 865.22 344.81 865.39 335.99C865.51 329.963 865.533 320.307 865.46 307.02C865.43 302.35 863.08 298.49 858.64 297.23C857.353 296.87 856.69 296.68 856.65 296.66Z" fill="white"/>
<path d="M1026.23 296.61C1026.16 296.579 1026.11 296.527 1026.08 296.463C1026.04 296.398 1026.03 296.324 1026.04 296.251C1026.06 296.179 1026.09 296.111 1026.14 296.059C1026.2 296.006 1026.27 295.972 1026.34 295.96C1029.86 295.48 1035.14 296.46 1038.87 296.2C1042.62 295.933 1045.08 295.8 1046.27 295.8C1046.37 295.801 1046.46 295.836 1046.54 295.899C1046.61 295.962 1046.66 296.048 1046.68 296.143C1046.69 296.239 1046.68 296.338 1046.63 296.423C1046.59 296.508 1046.51 296.574 1046.42 296.61C1039.25 299.33 1034.56 304.91 1030.77 311.52C1029.52 313.693 1026.75 318.323 1022.46 325.41C1022.1 326.005 1021.91 326.69 1021.91 327.39V350.1C1021.91 350.466 1022.01 350.82 1022.21 351.12C1023.81 353.58 1025.18 353.58 1027.72 353.69C1027.96 353.7 1028.19 353.803 1028.35 353.976C1028.52 354.149 1028.61 354.38 1028.61 354.62V354.93C1028.61 354.992 1028.6 355.054 1028.57 355.111C1028.55 355.168 1028.51 355.219 1028.46 355.26C1028.42 355.302 1028.36 355.333 1028.3 355.352C1028.24 355.371 1028.18 355.377 1028.12 355.37C1020.62 354.637 1013.05 354.623 1005.42 355.33C1005.32 355.34 1005.21 355.328 1005.12 355.296C1005.02 355.264 1004.93 355.211 1004.85 355.143C1004.77 355.074 1004.71 354.99 1004.67 354.897C1004.63 354.803 1004.61 354.702 1004.61 354.6V354.28C1004.61 354.151 1004.66 354.027 1004.75 353.933C1004.84 353.84 1004.96 353.785 1005.09 353.78C1008.71 353.61 1011.55 353.17 1011.49 348.52C1011.41 342.287 1011.41 336.03 1011.48 329.75C1011.49 328.637 1011.12 327.517 1010.35 326.39C1008.68 323.937 1004.18 316.937 996.85 305.39C994.577 301.817 991.633 298.857 988.02 296.51C987.947 296.461 987.893 296.389 987.865 296.306C987.838 296.223 987.838 296.133 987.866 296.05C987.895 295.967 987.95 295.895 988.023 295.847C988.096 295.798 988.182 295.774 988.27 295.78C994.897 296.353 1001.86 296.333 1009.16 295.72C1009.29 295.714 1009.42 295.756 1009.53 295.837C1009.63 295.918 1009.7 296.033 1009.73 296.163C1009.76 296.292 1009.74 296.427 1009.68 296.544C1009.61 296.66 1009.51 296.751 1009.39 296.8C1007.12 297.59 1005.18 299.54 1006.71 301.99C1012.2 310.777 1016.62 317.85 1019.99 323.21C1020.03 323.277 1020.09 323.333 1020.16 323.37C1020.23 323.408 1020.31 323.426 1020.39 323.424C1020.47 323.422 1020.55 323.4 1020.62 323.359C1020.68 323.318 1020.74 323.259 1020.78 323.19C1023.26 318.797 1025.88 314.293 1028.65 309.68C1030.51 306.57 1033.64 301.14 1029.94 298.25C1028.65 297.24 1027.3 297.14 1026.23 296.61Z" fill="white"/>
</svg>
