<?xml version="1.0" encoding="UTF-8" standalone="no"?>
<!DOCTYPE svg PUBLIC "-//W3C//DTD SVG 1.1//EN" "http://www.w3.org/Graphics/SVG/1.1/DTD/svg11.dtd">
<svg xmlns="http://www.w3.org/2000/svg" version="1.1" viewBox="0.00 0.00 512.00 512.00">
<path fill="#ffffff" d="
  M 451.76 0.00
  C 484.53 2.72 509.46 27.32 512.00 60.19
  L 512.00 451.75
  Q 509.10 484.21 482.73 501.72
  Q 469.26 510.67 451.80 512.00
  L 352.01 512.00
  L 351.99 336.76
  A 0.77 0.77 0.0 0 1 352.76 335.99
  L 399.46 335.99
  A 0.80 0.80 0.0 0 0 400.20 335.49
  L 431.82 256.45
  A 0.33 0.32 -79.0 0 0 431.52 256.00
  L 352.88 256.00
  A 0.87 0.87 0.0 0 1 352.01 255.13
  Q 351.98 222.05 352.00 196.85
  C 352.01 193.05 351.85 189.12 352.81 185.82
  C 355.21 177.59 363.41 176.21 371.00 176.06
  Q 378.57 175.92 411.00 176.01
  Q 412.48 176.01 415.41 175.82
  A 0.61 0.61 0.0 0 0 415.99 175.21
  L 415.99 97.11
  A 1.12 1.12 0.0 0 0 414.86 95.99
  Q 378.04 96.08 367.14 95.96
  Q 343.85 95.70 334.95 97.46
  C 294.27 105.52 264.39 135.80 257.23 176.48
  Q 255.66 185.35 255.95 208.08
  Q 256.08 219.08 255.95 255.63
  A 0.37 0.37 0.0 0 1 255.58 256.00
  L 192.75 256.00
  A 0.74 0.74 0.0 0 0 192.01 256.74
  L 192.01 335.05
  A 0.94 0.94 0.0 0 0 192.95 335.99
  L 255.19 335.99
  A 0.77 0.77 0.0 0 1 255.96 336.76
  L 255.98 512.00
  L 60.25 512.00
  Q 27.92 509.11 10.38 482.87
  Q 1.33 469.33 0.00 451.82
  L 0.00 60.09
  C 2.55 27.29 27.29 3.03 59.97 0.00
  L 451.76 0.00
  Z"
/>
</svg>
