<?xml version="1.0" encoding="UTF-8" standalone="no"?>
<!DOCTYPE svg PUBLIC "-//W3C//DTD SVG 1.1//EN" "http://www.w3.org/Graphics/SVG/1.1/DTD/svg11.dtd">
<svg xmlns="http://www.w3.org/2000/svg" version="1.1" viewBox="0.00 0.00 512.00 512.00">
<path fill="#ffffff" d="
  M 154.72 0.00
  L 283.77 187.72
  A 0.39 0.38 -41.8 0 0 284.38 187.75
  L 445.95 0.00
  L 490.16 0.00
  L 303.80 216.65
  A 0.28 0.26 -43.2 0 0 303.78 216.97
  L 506.50 512.00
  L 357.33 512.00
  L 221.15 313.81
  A 0.54 0.53 48.0 0 0 220.30 313.76
  L 49.74 512.00
  L 5.53 512.00
  L 200.84 284.97
  A 0.59 0.59 0.0 0 0 200.88 284.26
  L 5.53 0.00
  L 154.72 0.00
  Z
  M 445.42 480.28
  A 0.32 0.32 0.0 0 0 445.68 479.78
  L 133.63 33.42
  A 0.32 0.32 0.0 0 0 133.36 33.28
  L 66.26 33.28
  A 0.32 0.32 0.0 0 0 66.00 33.78
  L 378.04 480.14
  A 0.32 0.32 0.0 0 0 378.31 480.28
  L 445.42 480.28
  Z"
/>
</svg>
