<?xml version="1.0" encoding="UTF-8" standalone="no"?>
<!DOCTYPE svg PUBLIC "-//W3C//DTD SVG 1.1//EN" "http://www.w3.org/Graphics/SVG/1.1/DTD/svg11.dtd">
<svg xmlns="http://www.w3.org/2000/svg" version="1.1" viewBox="0.00 0.00 512.00 512.00">
<g fill="#ffffff">
<path d="
  M 278.38 0.00
  Q 293.94 0.39 309.50 0.74
  Q 343.74 1.53 370.74 3.29
  C 432.54 7.33 484.76 45.51 502.04 106.44
  C 508.09 127.77 510.46 150.34 510.97 172.00
  Q 511.36 188.46 512.00 238.23
  L 512.00 273.86
  Q 511.58 306.94 510.87 340.00
  C 510.16 373.45 505.54 406.95 489.17 436.71
  C 464.99 480.68 419.00 505.95 369.51 508.84
  Q 323.31 511.54 277.02 512.00
  L 234.62 512.00
  Q 188.27 511.53 142.00 508.78
  C 94.68 505.97 50.21 482.46 25.53 441.46
  C 10.09 415.82 3.63 386.58 1.82 357.00
  C 0.16 329.91 0.37 302.47 0.00 275.25
  L 0.00 236.86
  C 0.38 203.80 0.36 179.51 1.82 155.00
  C 4.53 109.55 18.76 66.35 54.98 36.53
  C 79.72 16.17 110.52 5.03 142.71 3.19
  Q 188.06 0.59 233.50 0.00
  L 278.38 0.00
  Z
  M 40.03 257.49
  Q 40.20 287.83 40.50 318.25
  Q 40.66 335.02 41.74 354.24
  C 43.84 391.58 54.80 426.46 85.97 448.87
  C 103.44 461.43 124.55 467.85 146.25 469.04
  Q 247.54 474.58 351.28 469.82
  Q 377.45 468.62 387.99 466.00
  C 424.09 457.02 451.13 433.70 462.59 397.81
  C 470.40 373.34 471.00 347.73 471.38 320.85
  C 471.71 297.26 472.08 275.14 471.96 254.50
  Q 471.79 224.16 471.49 193.74
  Q 471.33 176.97 470.25 157.75
  C 468.15 120.41 457.19 85.53 426.02 63.12
  C 408.55 50.56 387.44 44.14 365.74 42.95
  Q 264.45 37.41 160.71 42.17
  Q 134.54 43.37 124.00 45.99
  C 87.90 54.97 60.86 78.29 49.40 114.18
  C 41.59 138.65 40.99 164.26 40.61 191.14
  C 40.28 214.73 39.91 236.86 40.03 257.49
  Z"
/>
<circle cx="394.00" cy="121.00" r="29.98"/>
<path d="
  M 379.99 256.00
  A 124.99 124.99 0.0 0 1 255.00 380.99
  A 124.99 124.99 0.0 0 1 130.01 256.00
  A 124.99 124.99 0.0 0 1 255.00 131.01
  A 124.99 124.99 0.0 0 1 379.99 256.00
  Z
  M 340.00 256.00
  A 85.00 85.00 0.0 0 0 255.00 171.00
  A 85.00 85.00 0.0 0 0 170.00 256.00
  A 85.00 85.00 0.0 0 0 255.00 341.00
  A 85.00 85.00 0.0 0 0 340.00 256.00
  Z"
/>
</g>
</svg>
