<?xml version="1.0" encoding="UTF-8" standalone="no"?>
<!DOCTYPE svg PUBLIC "-//W3C//DTD SVG 1.1//EN" "http://www.w3.org/Graphics/SVG/1.1/DTD/svg11.dtd">
<svg xmlns="http://www.w3.org/2000/svg" version="1.1" viewBox="0.00 0.00 512.00 512.00">
<path fill="#ffffff" d="
  M 351.55 167.82
  A 0.28 0.28 0.0 0 0 351.10 168.05
  Q 351.50 272.97 351.48 353.23
  C 351.48 410.47 320.87 462.10 271.65 490.35
  C 223.90 517.76 164.21 518.66 115.84 492.81
  C 71.83 469.30 40.99 427.02 33.32 377.55
  C 21.43 300.86 67.38 227.25 141.15 203.19
  Q 177.02 191.49 215.23 196.92
  A 0.41 0.40 4.1 0 1 215.58 197.32
  L 215.57 281.30
  A 0.27 0.27 0.0 0 1 215.22 281.56
  Q 188.28 273.44 163.61 283.29
  C 144.38 290.97 129.32 306.05 121.51 325.23
  C 107.40 359.86 121.24 398.99 152.90 418.10
  C 174.90 431.38 202.44 432.46 225.49 420.95
  C 251.20 408.12 267.35 382.23 267.41 353.26
  Q 267.69 227.62 267.54 1.02
  A 0.62 0.62 0.0 0 1 268.16 0.40
  L 350.43 0.40
  A 0.58 0.58 0.0 0 1 351.01 0.96
  Q 351.90 32.76 365.32 58.24
  C 388.05 101.43 431.24 128.11 479.95 128.37
  A 0.66 0.65 0.4 0 1 480.60 129.02
  L 480.60 210.84
  A 0.65 0.65 0.0 0 1 479.94 211.49
  Q 408.37 210.66 351.55 167.82
  Z"
/>
</svg>
